<!DOCTYPE svg PUBLIC "-//W3C//DTD SVG 1.1//EN" "http://www.w3.org/Graphics/SVG/1.1/DTD/svg11.dtd">
<!-- Uploaded to: SVG Repo, www.svgrepo.com, Transformed by: SVG Repo Mixer Tools -->
<svg height="800px" width="800px" version="1.1" id="Layer_1" xmlns="http://www.w3.org/2000/svg" xmlns:xlink="http://www.w3.org/1999/xlink" viewBox="0 0 512 512" xml:space="preserve" fill="#000000" stroke="#000000">
<g id="SVGRepo_bgCarrier" stroke-width="0"/>
<g id="SVGRepo_tracerCarrier" stroke-linecap="round" stroke-linejoin="round"/>
<g id="SVGRepo_iconCarrier"> <circle style="fill:#000000ff;" cx="256" cy="256" r="256"/> <path style="fill:#000000;" d="M324.572,502.698c93.305-25.879,165.178-103.26,183.093-199.614L322.97,118.391l-124.68,5.442v42.851 l4.717,36.586l59.208,59.208l-19.144,158.718L324.572,502.698z"/> <path style="fill:#FFD15D;" d="M298.622,211.465c26.421-21.425,39.264-40.595,39.264-58.604c0-26.138-21.268-47.404-47.407-47.404 c-13.571,0-25.828,5.73-34.478,14.901c-8.651-9.169-20.908-14.901-34.478-14.901c-26.14,0-47.407,21.266-47.407,47.404 c0,35.344,49.736,68.424,68.956,79.886v188.45h25.859v-15.874h44.68v-25.859h-44.68v-31.751h44.68v-25.859h-44.68V232.55 C275.79,228.261,287.153,220.763,298.622,211.465z M199.973,152.86c0-11.881,9.666-21.545,21.549-21.545 c11.883,0,21.549,9.664,21.549,21.545h25.859c0-11.881,9.666-21.545,21.549-21.545c11.883,0,21.549,9.664,21.549,21.545 c0,16.139-31.015,41.87-56.173,57.434C230.803,195.401,199.973,170.096,199.973,152.86z"/> <path style="fill:#F9B54C;" d="M298.622,211.465c26.421-21.425,39.264-40.595,39.264-58.604c0-26.138-21.268-47.404-47.407-47.404 c-13.571,0-25.828,5.73-34.478,14.9v32.504h12.929c0-11.881,9.666-21.545,21.549-21.545c11.883,0,21.549,9.664,21.549,21.545 c0,16.108-30.894,41.768-56.027,57.342v210.994h12.929v-15.874h44.68v-25.859h-44.68v-31.751h44.68v-25.859h-44.68V232.55 C275.79,228.261,287.153,220.763,298.622,211.465z"/> </g>
</svg>